<svg width="83" height="79" viewBox="0 0 83 79" fill="none" xmlns="http://www.w3.org/2000/svg">
<path d="M10.375 20.5729C10.375 17.7357 11.5592 15.0146 13.667 13.0083C15.7748 11.0021 18.6337 9.875 21.6146 9.875H61.3854C64.3663 9.875 67.2252 11.0021 69.333 13.0083C71.4408 15.0146 72.625 17.7357 72.625 20.5729V39.1972C72.3092 38.539 71.8355 37.9606 71.2421 37.5084C70.6486 37.0562 69.952 36.7428 69.2082 36.5935C68.6233 36.4715 68.0323 36.3781 67.4375 36.3137V27.9792H15.5625V58.4271C15.5625 61.6068 18.2738 64.1875 21.6146 64.1875H41.2441L40.6008 64.7998C39.359 65.9778 38.52 67.4854 38.1938 69.125H21.6146C18.6337 69.125 15.7748 67.9979 13.667 65.9917C11.5592 63.9854 10.375 61.2643 10.375 58.4271V20.5729ZM55.3126 39.2795L49.385 33.6408C49.1475 33.3983 48.8612 33.2037 48.543 33.0688C48.2249 32.9339 47.8814 32.8613 47.5331 32.8555C47.1849 32.8496 46.8389 32.9106 46.516 33.0348C46.193 33.1589 45.8996 33.3437 45.6533 33.5782C45.407 33.8126 45.2129 34.0918 45.0824 34.3992C44.952 34.7066 44.8879 35.0359 44.894 35.3674C44.9002 35.6989 44.9764 36.0258 45.1182 36.3286C45.2599 36.6314 45.4643 36.904 45.7192 37.13L51.5672 42.6995C52.6323 41.3895 53.8943 40.2393 55.3126 39.2795ZM15.5625 23.0417H67.4375V20.5729C67.4375 19.0452 66.7999 17.58 65.6649 16.4997C64.5299 15.4194 62.9905 14.8125 61.3854 14.8125H21.6146C20.0095 14.8125 18.4701 15.4194 17.3351 16.4997C16.2001 17.58 15.5625 19.0452 15.5625 20.5729V23.0417ZM37.2808 37.13C37.5357 36.904 37.7401 36.6314 37.8818 36.3286C38.0236 36.0258 38.0998 35.6989 38.106 35.3674C38.1121 35.0359 38.048 34.7066 37.9176 34.3992C37.7871 34.0918 37.593 33.8126 37.3467 33.5782C37.1004 33.3437 36.807 33.1589 36.484 33.0348C36.1611 32.9106 35.8151 32.8496 35.4669 32.8555C35.1186 32.8613 34.7751 32.9339 34.457 33.0688C34.1388 33.2037 33.8525 33.3983 33.615 33.6408L23.24 43.5158C22.7543 43.9787 22.4814 44.6062 22.4814 45.2604C22.4814 45.9146 22.7543 46.5421 23.24 47.005L33.615 56.88C33.8525 57.1226 34.1388 57.3171 34.457 57.452C34.7751 57.587 35.1186 57.6595 35.4669 57.6654C35.8151 57.6712 36.1611 57.6102 36.484 57.4861C36.807 57.3619 37.1004 57.1771 37.3467 56.9427C37.593 56.7082 37.7871 56.429 37.9176 56.1216C38.048 55.8142 38.1121 55.4849 38.106 55.1535C38.0998 54.822 38.0236 54.4951 37.8818 54.1922C37.7401 53.8894 37.5357 53.6168 37.2808 53.3908L28.7388 45.2604L37.2808 37.13ZM68.4715 39.8094C69.6923 40.0629 69.9932 41.4783 69.1113 42.3177L62.5232 48.585C61.5326 49.5278 60.9761 50.8066 60.9761 52.14C60.9761 53.4734 61.5326 54.7522 62.5232 55.695C63.5138 56.6378 64.8573 57.1675 66.2582 57.1675C67.6591 57.1675 69.0026 56.6378 69.9932 55.695L76.5813 49.4277C77.4632 48.5883 78.9503 48.8747 79.2166 50.0366C79.7679 52.4392 79.6146 54.9398 78.7736 57.2651C77.9325 59.5904 76.4361 61.6508 74.4477 63.2212C72.4594 64.7916 70.0558 65.8115 67.4995 66.1695C64.9433 66.5274 62.3329 66.2096 59.9537 65.2507L50.5159 74.237C49.5253 75.1798 48.1818 75.7095 46.7809 75.7095C45.38 75.7095 44.0365 75.1798 43.0459 74.237C42.0553 73.2941 41.4988 72.0153 41.4988 70.682C41.4988 69.3486 42.0553 68.0698 43.0459 67.127L52.4871 58.1407C51.4784 55.8761 51.1435 53.3911 51.519 50.9575C51.8945 48.524 52.966 46.2355 54.6162 44.3427C56.2665 42.4498 58.4319 41.0254 60.8756 40.2253C63.3193 39.4251 65.9471 39.2834 68.4715 39.8094Z" fill="black"/>
</svg>
