<svg width="79" height="71" viewBox="0 0 79 71" fill="none" xmlns="http://www.w3.org/2000/svg">
<path d="M53.7102 2.95831H69.599C69.8864 2.95824 70.1687 3.02578 70.418 3.15421C70.6673 3.28264 70.8748 3.46748 71.02 3.69036C71.1651 3.91324 71.2428 4.16638 71.2453 4.42461C71.2478 4.68284 71.175 4.93716 71.0342 5.16227L65.0105 14.7916H69.9315C70.406 14.7913 70.8706 14.9138 71.2696 15.1446C71.6687 15.3753 71.9853 15.7046 72.1815 16.0929C72.3777 16.4812 72.4453 16.9121 72.3761 17.334C72.3069 17.7559 72.1038 18.1509 71.7913 18.4718L55.9123 34.7663C54.25 36.4703 51.1624 35.0178 51.7714 32.8197L54.3125 23.6666H44.431C44.1535 23.667 43.8805 23.6042 43.6373 23.4843C43.394 23.3644 43.1885 23.1912 43.0397 22.9807C42.8909 22.7702 42.8037 22.5294 42.7863 22.2806C42.7688 22.0317 42.8216 21.7829 42.9398 21.5574L52.2223 3.80735C52.3553 3.55363 52.5657 3.33909 52.8291 3.18877C53.0926 3.03844 53.3981 2.95852 53.7102 2.95831ZM17.2813 8.87498H45.9385L43.6179 13.3125H17.2813C15.7535 13.3125 14.2883 13.8579 13.2081 14.8288C12.1278 15.7997 11.5209 17.1165 11.5209 18.4896V43.6354C11.5209 46.4931 14.1015 48.8125 17.2813 48.8125H24.6842V59.9062L41.192 48.8125H61.7188C63.2465 48.8125 64.7117 48.267 65.792 47.2962C66.8723 46.3253 67.4792 45.0084 67.4792 43.6354V27.3912L72.4167 22.3236V43.6354C72.4167 44.898 72.14 46.1482 71.6024 47.3147C71.0648 48.4812 70.2768 49.5411 69.2834 50.4339C68.29 51.3267 67.1106 52.0349 65.8127 52.5181C64.5148 53.0013 63.1237 53.25 61.7188 53.25H42.8312L26.3334 64.3437C25.7221 64.7549 24.9955 65.0051 24.235 65.0664C23.4744 65.1276 22.71 64.9974 22.0271 64.6904C21.3442 64.3833 20.7698 63.9116 20.3683 63.3279C19.9667 62.7442 19.7538 62.0716 19.7533 61.3854V53.25H17.2846C15.8794 53.2504 14.488 53.002 13.1897 52.519C11.8913 52.036 10.7116 51.3278 9.71788 50.435C8.72414 49.5421 7.93585 48.4821 7.39802 47.3154C6.86019 46.1487 6.58337 44.8983 6.58337 43.6354V18.4896C6.58337 15.9396 7.71047 13.4941 9.71672 11.691C11.723 9.88794 14.444 8.87498 17.2813 8.87498Z" fill="black"/>
</svg>
