<svg width="104" height="100" viewBox="0 0 104 100" fill="none" xmlns="http://www.w3.org/2000/svg">
<path d="M32.5 33.3333C35.9478 33.3333 39.2544 32.0164 41.6923 29.6721C44.1303 27.3279 45.5 24.1485 45.5 20.8333C45.5 17.5181 44.1303 14.3387 41.6923 11.9945C39.2544 9.65027 35.9478 8.33331 32.5 8.33331C29.0521 8.33331 25.7455 9.65027 23.3076 11.9945C20.8696 14.3387 19.5 17.5181 19.5 20.8333C19.5 24.1485 20.8696 27.3279 23.3076 29.6721C25.7455 32.0164 29.0521 33.3333 32.5 33.3333ZM8.66663 44.8666C8.66663 40.7916 12.0943 37.5 16.328 37.5H36.985C35.4614 40.0326 34.6615 42.9076 34.6666 45.8333C34.6637 48.1983 35.1856 50.5366 36.1974 52.6922C37.2092 54.8477 38.6876 56.7709 40.534 58.3333H35.828C33.3857 58.3334 31.0016 59.0498 28.9938 60.387C26.9861 61.7241 25.4504 63.6183 24.5916 65.8167C18.1003 64.2916 14.0746 60.8875 11.7043 57.0958C8.66663 52.2333 8.66663 47.2333 8.66663 46.3625V44.8666ZM69.3333 45.8333C69.3386 42.9075 68.5387 40.0325 67.015 37.5H87.672C91.91 37.5 95.3333 40.7958 95.3333 44.8666V46.3666C95.3333 47.2291 95.3333 52.2333 92.2999 57.0958C89.9253 60.8875 85.8996 64.2916 79.4083 65.8167C78.55 63.6179 77.0144 61.7234 75.0066 60.3862C72.9988 59.049 70.6144 58.3328 68.172 58.3333H63.466C65.3123 56.7709 66.7908 54.8477 67.8025 52.6922C68.8143 50.5366 69.3362 48.1983 69.3333 45.8333ZM84.5 20.8333C84.5 24.1485 83.1303 27.3279 80.6923 29.6721C78.2544 32.0164 74.9478 33.3333 71.5 33.3333C68.0521 33.3333 64.7455 32.0164 62.3076 29.6721C59.8696 27.3279 58.5 24.1485 58.5 20.8333C58.5 17.5181 59.8696 14.3387 62.3076 11.9945C64.7455 9.65027 68.0521 8.33331 71.5 8.33331C74.9478 8.33331 78.2544 9.65027 80.6923 11.9945C83.1303 14.3387 84.5 17.5181 84.5 20.8333ZM28.1666 69.8666C28.1666 65.7916 31.5943 62.5 35.828 62.5H68.172C72.4056 62.5 75.8333 65.7958 75.8333 69.8666V71.3667C75.8333 72.2292 75.8333 77.2333 72.7999 82.0958C69.5803 87.2375 63.323 91.6667 52 91.6667C40.677 91.6667 34.4153 87.2375 31.2 82.0958C28.1666 77.2333 28.1666 72.2333 28.1666 71.3625V69.8666ZM52 58.3333C53.7071 58.3333 55.3976 58.01 56.9748 57.3818C58.5521 56.7536 59.9852 55.8329 61.1923 54.6722C62.3995 53.5114 63.3571 52.1334 64.0104 50.6169C64.6637 49.1003 65 47.4748 65 45.8333C65 44.1918 64.6637 42.5663 64.0104 41.0498C63.3571 39.5332 62.3995 38.1552 61.1923 36.9945C59.9852 35.8337 58.5521 34.913 56.9748 34.2848C55.3976 33.6566 53.7071 33.3333 52 33.3333C48.5521 33.3333 45.2455 34.6503 42.8076 36.9945C40.3696 39.3387 39 42.5181 39 45.8333C39 49.1485 40.3696 52.3279 42.8076 54.6722C45.2455 57.0164 48.5521 58.3333 52 58.3333Z" fill="black"/>
</svg>
