<svg width="79" height="75" viewBox="0 0 79 75" fill="none" xmlns="http://www.w3.org/2000/svg">
<path d="M14.8125 16.4062C14.8125 14.5414 15.5928 12.753 16.9817 11.4344C18.3707 10.1158 20.2545 9.375 22.2188 9.375H41.9688C43.933 9.375 45.8168 10.1158 47.2058 11.4344C48.5947 12.753 49.375 14.5414 49.375 16.4062V32.8641C46.6632 32.6291 43.9397 33.1736 41.5581 34.4269C39.1764 35.6802 37.2467 37.5844 36.0196 39.8922C34.7925 42.1999 34.3246 44.8047 34.6767 47.3681C35.0288 49.9316 36.1846 52.3353 37.9941 54.2672C35.4259 54.9386 33.1858 56.4416 31.6619 58.5159C30.138 60.5901 29.4262 63.105 29.6497 65.625H17.2812C16.6265 65.625 15.9986 65.3781 15.5356 64.9385C15.0726 64.499 14.8125 63.9029 14.8125 63.2812V16.4062ZM27.1562 23.4375C27.811 23.4375 28.4389 23.1906 28.9019 22.751C29.3649 22.3115 29.625 21.7154 29.625 21.0938C29.625 20.4721 29.3649 19.876 28.9019 19.4365C28.4389 18.9969 27.811 18.75 27.1562 18.75C26.5015 18.75 25.8736 18.9969 25.4106 19.4365C24.9476 19.876 24.6875 20.4721 24.6875 21.0938C24.6875 21.7154 24.9476 22.3115 25.4106 22.751C25.8736 23.1906 26.5015 23.4375 27.1562 23.4375ZM27.1562 35.1562C27.811 35.1562 28.4389 34.9093 28.9019 34.4698C29.3649 34.0302 29.625 33.4341 29.625 32.8125C29.625 32.1909 29.3649 31.5948 28.9019 31.1552C28.4389 30.7157 27.811 30.4688 27.1562 30.4688C26.5015 30.4688 25.8736 30.7157 25.4106 31.1552C24.9476 31.5948 24.6875 32.1909 24.6875 32.8125C24.6875 33.4341 24.9476 34.0302 25.4106 34.4698C25.8736 34.9093 26.5015 35.1562 27.1562 35.1562ZM27.1562 46.875C27.811 46.875 28.4389 46.6281 28.9019 46.1885C29.3649 45.749 29.625 45.1529 29.625 44.5312C29.625 43.9096 29.3649 43.3135 28.9019 42.874C28.4389 42.4344 27.811 42.1875 27.1562 42.1875C26.5015 42.1875 25.8736 42.4344 25.4106 42.874C24.9476 43.3135 24.6875 43.9096 24.6875 44.5312C24.6875 45.1529 24.9476 45.749 25.4106 46.1885C25.8736 46.6281 26.5015 46.875 27.1562 46.875ZM37.0312 23.4375C37.686 23.4375 38.3139 23.1906 38.7769 22.751C39.2399 22.3115 39.5 21.7154 39.5 21.0938C39.5 20.4721 39.2399 19.876 38.7769 19.4365C38.3139 18.9969 37.686 18.75 37.0312 18.75C36.3765 18.75 35.7486 18.9969 35.2856 19.4365C34.8226 19.876 34.5625 20.4721 34.5625 21.0938C34.5625 21.7154 34.8226 22.3115 35.2856 22.751C35.7486 23.1906 36.3765 23.4375 37.0312 23.4375ZM37.0312 35.1562C37.686 35.1562 38.3139 34.9093 38.7769 34.4698C39.2399 34.0302 39.5 33.4341 39.5 32.8125C39.5 32.1909 39.2399 31.5948 38.7769 31.1552C38.3139 30.7157 37.686 30.4688 37.0312 30.4688C36.3765 30.4688 35.7486 30.7157 35.2856 31.1552C34.8226 31.5948 34.5625 32.1909 34.5625 32.8125C34.5625 33.4341 34.8226 34.0302 35.2856 34.4698C35.7486 34.9093 36.3765 35.1562 37.0312 35.1562ZM56.7812 45.7031C56.7812 47.8787 55.8709 49.9652 54.2505 51.5036C52.63 53.042 50.4323 53.9062 48.1406 53.9062C45.849 53.9062 43.6512 53.042 42.0308 51.5036C40.4103 49.9652 39.5 47.8787 39.5 45.7031C39.5 43.5275 40.4103 41.441 42.0308 39.9026C43.6512 38.3643 45.849 37.5 48.1406 37.5C50.4323 37.5 52.63 38.3643 54.2505 39.9026C55.8709 41.441 56.7812 43.5275 56.7812 45.7031ZM64.1875 64.7484C64.1875 69.8578 59.9561 75 49.375 75C38.7939 75 34.5625 69.8719 34.5625 64.7484C34.5625 61.35 37.4065 58.5938 40.9121 58.5938H57.8379C61.3435 58.5938 64.1875 61.35 64.1875 64.7484ZM66.5427 72.6562H66.6562C75.4746 72.6562 79 68.2453 79 63.8672C79 60.9562 76.63 58.5938 73.7119 58.5938H67.1302C68.3942 60.3516 69.125 62.4797 69.125 64.7484C69.125 67.4766 68.3054 70.2469 66.5427 72.6562ZM74.0625 48.0469C74.0625 49.6009 73.4123 51.0912 72.2548 52.1901C71.0973 53.2889 69.5275 53.9062 67.8906 53.9062C66.2537 53.9062 64.6839 53.2889 63.5265 52.1901C62.369 51.0912 61.7188 49.6009 61.7188 48.0469C61.7188 46.4929 62.369 45.0025 63.5265 43.9037C64.6839 42.8048 66.2537 42.1875 67.8906 42.1875C69.5275 42.1875 71.0973 42.8048 72.2548 43.9037C73.4123 45.0025 74.0625 46.4929 74.0625 48.0469Z" fill="black"/>
</svg>
