<svg width="24" height="24" viewBox="0 0 24 24" fill="none" xmlns="http://www.w3.org/2000/svg">
<g clip-path="url(#clip0_2026_81)">
<path d="M12.2863 -48C-4.1125 -48 -18 -37.5253 -18 -25.1166C-18 -12.1228 -1.90375 1.16531 8.92375 10.5047C8.965 10.5422 10.7151 12 12.8712 12H13.0626C15.2188 12 16.9563 10.5422 17 10.5047C27.1613 1.74375 42 -12.7012 42 -25.1166C42 -37.5253 31.1675 -48 12.2863 -48ZM13.2887 7.98938C13.2012 8.055 13.0737 8.12819 12.9612 8.18912C12.8462 8.13006 12.7212 8.05506 12.6287 7.98943L11.3212 6.86162C1.05625 -1.97063 -13 -14.0653 -13 -25.1166C-13 -35.4881 -1.42 -44.2509 12.2863 -44.2509C29.3587 -44.2509 37 -34.6416 37 -25.1166C37 -16.7269 29.0212 -5.5875 13.2887 7.98938ZM12.0874 -36.6459C3.80367 -36.6459 -2.91258 -31.6087 -2.91258 -25.3959C-2.91258 -19.1831 3.80367 -14.1459 12.0874 -14.1459C20.3712 -14.1459 27.0874 -19.1831 27.0874 -25.3959C27.0874 -31.6087 20.3712 -36.6459 12.0874 -36.6459ZM12.0874 -17.8959C6.57367 -17.8959 1.97234 -21.3422 1.97234 -25.4784C1.97234 -29.6137 6.45859 -32.9784 11.9723 -32.9784C17.4898 -32.9784 21.9723 -29.6137 21.9723 -25.4784C21.9748 -21.3422 17.6049 -17.8959 12.0874 -17.8959Z" fill="white"/>
</g>
<defs>
<clipPath id="clip0_2026_81">
<rect width="24" height="24" fill="white"/>
</clipPath>
</defs>
</svg>
