<svg width="96" height="92" viewBox="0 0 96 92" fill="none" xmlns="http://www.w3.org/2000/svg">
<path d="M40 57.5L60.76 46L40 34.5V57.5ZM86.24 27.485C86.76 29.2867 87.12 31.7017 87.36 34.7684C87.64 37.835 87.76 40.48 87.76 42.78L88 46C88 54.395 87.36 60.5667 86.24 64.515C85.24 67.965 82.92 70.1884 79.32 71.1467C77.44 71.645 74 71.99 68.72 72.22C63.52 72.4884 58.76 72.6034 54.36 72.6034L48 72.8334C31.24 72.8334 20.8 72.22 16.68 71.1467C13.08 70.1884 10.76 67.965 9.76 64.515C9.24 62.7134 8.88 60.2984 8.64 57.2317C8.36 54.165 8.24 51.52 8.24 49.22L8 46C8 37.605 8.64 31.4334 9.76 27.485C10.76 24.035 13.08 21.8117 16.68 20.8534C18.56 20.355 22 20.01 27.28 19.78C32.48 19.5117 37.24 19.3967 41.64 19.3967L48 19.1667C64.76 19.1667 75.2 19.78 79.32 20.8534C82.92 21.8117 85.24 24.035 86.24 27.485Z" fill="black"/>
</svg>
