<svg width="88" height="83" viewBox="0 0 88 83" fill="none" xmlns="http://www.w3.org/2000/svg">
<path d="M47.7694 6.91669C51.8944 6.92706 53.9881 6.94781 55.7957 6.99623L56.5071 7.02044C57.3284 7.0481 58.1387 7.08269 59.1177 7.12419C63.0191 7.2971 65.6811 7.8781 68.0168 8.73231C70.4367 9.61073 72.4754 10.8004 74.5141 12.7198C76.3786 14.4486 77.8213 16.5398 78.7418 18.8479C79.6474 21.0509 80.2634 23.5616 80.4468 27.2448C80.4908 28.1647 80.5274 28.929 80.5567 29.7071L80.5788 30.378C80.6338 32.0795 80.6558 34.0542 80.6631 37.9449L80.6668 40.5248V45.0552C80.6758 47.5777 80.6476 50.1002 80.5824 52.622L80.5604 53.2929C80.5311 54.0711 80.4944 54.8354 80.4504 55.7553C80.2671 59.4384 79.6438 61.9457 78.7418 64.1521C77.8239 66.4615 76.3809 68.5532 74.5141 70.2803C72.6806 72.0382 70.4636 73.3988 68.0168 74.2677C65.6811 75.1219 63.0191 75.7029 59.1177 75.8759C58.2477 75.9145 57.3775 75.9491 56.5071 75.9796L55.7957 76.0004C53.9881 76.0488 51.8944 76.073 47.7694 76.0799L45.0341 76.0834H40.2344C37.5587 76.0921 34.883 76.0655 32.2081 76.0038L31.4967 75.9831C30.6263 75.952 29.7561 75.9162 28.8861 75.8759C24.9847 75.7029 22.3227 75.1219 19.9834 74.2677C17.5365 73.401 15.3202 72.04 13.4897 70.2803C11.6236 68.5521 10.1796 66.4607 9.25841 64.1521C8.35275 61.9491 7.73675 59.4384 7.55341 55.7553C7.51256 54.9347 7.4759 54.1139 7.44341 53.2929L7.42508 52.622C7.35751 50.1003 7.32695 47.5777 7.33341 45.0552V37.9449C7.32318 35.4223 7.35007 32.8998 7.41408 30.378L7.43975 29.7071C7.46908 28.929 7.50575 28.1647 7.54975 27.2448C7.73308 23.5616 8.34908 21.0544 9.25475 18.8479C10.1755 16.5374 11.6224 14.4456 13.4934 12.7198C15.3234 10.9611 17.5383 9.60031 19.9834 8.73231C22.3227 7.8781 24.9811 7.2971 28.8861 7.12419C29.8614 7.08269 30.6754 7.0481 31.4967 7.02044L32.2081 6.99969C34.8818 6.93824 37.5563 6.91173 40.2307 6.92015L47.7694 6.91669ZM44.0001 24.2084C39.1378 24.2084 34.4746 26.0301 31.0365 29.273C27.5983 32.5158 25.6667 36.914 25.6667 41.5C25.6667 46.0861 27.5983 50.4843 31.0365 53.7271C34.4746 56.9699 39.1378 58.7917 44.0001 58.7917C48.8624 58.7917 53.5255 56.9699 56.9637 53.7271C60.4019 50.4843 62.3334 46.0861 62.3334 41.5C62.3334 36.914 60.4019 32.5158 56.9637 29.273C53.5255 26.0301 48.8624 24.2084 44.0001 24.2084ZM44.0001 31.125C45.4446 31.1248 46.8751 31.3929 48.2097 31.9141C49.5444 32.4353 50.7572 33.1993 51.7788 34.1626C52.8004 35.1258 53.6109 36.2694 54.1639 37.5281C54.7169 38.7867 55.0017 40.1358 55.0019 41.4983C55.0022 42.8608 54.7179 44.2099 54.1653 45.4688C53.6127 46.7276 52.8027 47.8715 51.7814 48.835C50.7601 49.7986 49.5476 50.563 48.2131 51.0846C46.8786 51.6062 45.4483 51.8748 44.0037 51.875C41.0864 51.875 38.2885 50.7819 36.2256 48.8363C34.1627 46.8906 33.0037 44.2516 33.0037 41.5C33.0037 38.7484 34.1627 36.1095 36.2256 34.1638C38.2885 32.2181 41.0864 31.125 44.0037 31.125M63.2537 19.0209C62.0382 19.0209 60.8724 19.4763 60.0128 20.287C59.1533 21.0977 58.6704 22.1973 58.6704 23.3438C58.6704 24.4903 59.1533 25.5898 60.0128 26.4005C60.8724 27.2112 62.0382 27.6667 63.2537 27.6667C64.4693 27.6667 65.6351 27.2112 66.4947 26.4005C67.3542 25.5898 67.8371 24.4903 67.8371 23.3438C67.8371 22.1973 67.3542 21.0977 66.4947 20.287C65.6351 19.4763 64.4693 19.0209 63.2537 19.0209Z" fill="black"/>
</svg>
