<svg width="68" height="68" viewBox="0 0 68 68" fill="none" xmlns="http://www.w3.org/2000/svg">
<path d="M38.5333 38.5333L47.5999 47.6M31.7333 43.0667C28.7275 43.0667 25.8448 41.8726 23.7194 39.7472C21.594 37.6218 20.3999 34.7391 20.3999 31.7333C20.3999 28.7276 21.594 25.8449 23.7194 23.7195C25.8448 21.594 28.7275 20.4 31.7333 20.4C34.7391 20.4 37.6217 21.594 39.7472 23.7195C41.8726 25.8449 43.0666 28.7276 43.0666 31.7333C43.0666 34.7391 41.8726 37.6218 39.7472 39.7472C37.6217 41.8726 34.7391 43.0667 31.7333 43.0667ZM33.9999 65.7333C29.8327 65.7333 25.7062 64.9125 21.8561 63.3178C18.0061 61.723 14.5078 59.3856 11.5611 56.4389C8.61437 53.4922 6.27691 49.9939 4.68216 46.1438C3.08741 42.2938 2.2666 38.1673 2.2666 34C2.2666 29.8327 3.08741 25.7062 4.68216 21.8562C6.27691 18.0061 8.61437 14.5079 11.5611 11.5611C14.5078 8.61443 18.0061 6.27697 21.8561 4.68222C25.7062 3.08747 29.8327 2.26666 33.9999 2.26666C42.4162 2.26666 50.4876 5.60999 56.4388 11.5611C62.39 17.5123 65.7333 25.5838 65.7333 34C65.7333 42.4162 62.39 50.4877 56.4388 56.4389C50.4876 62.39 42.4162 65.7333 33.9999 65.7333Z" stroke="black"/>
</svg>
